<?xml version="1.0" encoding="utf-8"?>
<!-- Generator: Adobe Illustrator 19.0.1, SVG Export Plug-In . SVG Version: 6.00 Build 0)  -->
<svg version="1.1" id="Layer_1" xmlns="http://www.w3.org/2000/svg" xmlns:xlink="http://www.w3.org/1999/xlink" x="0px" y="0px"
	 viewBox="-207 411.6 232.5 42.4" style="enable-background:new -207 411.6 232.5 42.4;" xml:space="preserve">
<style type="text/css">
	.st0{fill:#FFFFFF;stroke:#FFFFFF;stroke-miterlimit:10;}
	.st1{fill:none;}
	.st2{fill:#FFFFFF;}
</style>
<g id="decoration_3_1_">
	
		<rect x="-299.6" y="832.3" transform="matrix(-0.7071 0.7071 -0.7071 -0.7071 81.9122 1634.6407)" class="st0" width="4" height="4"/>
	
		<rect x="-301.9" y="850" transform="matrix(-0.7071 0.7071 -0.7071 -0.7071 96.1018 1668.7826)" class="st0" width="8.6" height="8.6"/>
</g>
<g>
	<line class="st1" x1="-414" y1="844.4" x2="-297.6" y2="844.4"/>
	<g>
		<g>
			<polygon class="st2" points="-414,844.4 -375.2,843.7 -297.6,844.4 -375.2,845.1 			"/>
		</g>
	</g>
</g>
<g>
	<line class="st1" x1="-181.3" y1="844.4" x2="-297.8" y2="844.4"/>
	<g>
		<g>
			<polygon class="st2" points="-181.3,844.4 -220.1,845.1 -297.8,844.4 -220.1,843.7 			"/>
		</g>
	</g>
</g>
<g>
	<g>
		<g>
			<g>
				<path class="st2" d="M25.5,432.7c-2,0-4,0-5.9,0c-4.2,0-8.5,0-12.7,0c-4,0-7.9,0-11.9,0c-1.6,0-3.2-0.1-4.8,0.1
					c-3.4,0.4-6.9,0.7-10.3,1.3c-1.2,0.2-2.4,0.8-3.6,0.3c-1.6-0.6-3.3-2.1-5-1.8c-0.9,0.1-1.8,0.4-2.8,0.4
					c-2.9-0.1-5.8,0.3-8.7,0.4c-3.2,0.1-6.5,0.3-9.7,0.5c-2.7,0.2-5.4,0.3-8.1,0.5c-1.3,0.1-2.6,0.2-3.9,0.2c0,0-0.1,0-0.1,0
					c-1.8,1.4-3.5,0.6-5.4,0.6c-1.4,0.1-2.8,0.4-4.2,0.6c-1.3,0.2-2.7-0.3-4-0.6l-16.4-1.3l-7.1,0.6c-5,0.4-10,0.3-15-0.6
					c-2.7-0.5-5.3-1.3-8-0.6c-1.5,0.4-3.2,1.2-4.7,1.2l-26.8-0.6H-172h-7.1c-1.1-0.6-2.7-0.6-3.8-1c-3.3-1-6.5-1-9.8-1.1
					c-3.8-0.2-7.7-0.3-11.5-0.4c-0.2,0-2.8-0.4-2.8-0.1l0.3-1.7c0,0,18.7,0.4,19,0.4c2.8,0.1,3.4,0.6,6.6,1.4
					c4.9,1.2,11.8,0.7,16.7,0.7c0.5,0,1.1,0,1.6,0l35.4-0.4c2.6,0,5.1-0.9,7.6-0.9c1.2,0,2.5-0.2,3.7,0.4c1.6,0.9,3.2,1.1,4.9,1.3
					l21-0.4l8.6,0.4c4.8-0.3,9.7,0.1,14.5-0.4l5.5,0.2h4.5l30.4-1.9c1.4,0.5,2.8,1.7,4.2,1.9c1.3,0.2,2.6-0.4,3.9-0.6
					c3.6-0.6,7.2-1.3,10.8-1.9c2.2-0.4,4.3,0.3,6.5,0.6c2.2,0.3,4.4,0.6,6.6,0.7c5.2,0.4,10.5,0.8,15.7,1.2
					C22.5,432.5,24,432.6,25.5,432.7z"/>
			</g>
		</g>
	</g>
</g>
</svg>
