<?xml version="1.0" encoding="utf-8"?>
<!-- Generator: Adobe Illustrator 19.0.1, SVG Export Plug-In . SVG Version: 6.00 Build 0)  -->
<svg version="1.1" id="Layer_1" xmlns="http://www.w3.org/2000/svg" xmlns:xlink="http://www.w3.org/1999/xlink" x="0px" y="0px"
	 viewBox="-193 421.7 260 23.3" style="enable-background:new -193 421.7 260 23.3;" xml:space="preserve">
<style type="text/css">
	.st0{fill:none;}
	.st1{fill:#FFFFFF;}
</style>
<g>
	<line class="st0" x1="-256" y1="855.1" x2="-386" y2="855.1"/>
	<g>
		<g>
			<polygon class="st1" points="-386,855.1 -342.7,854.3 -256,855.1 -342.7,855.8 			"/>
		</g>
	</g>
</g>
<g>
	<line class="st0" x1="-256" y1="855.1" x2="-126" y2="855.1"/>
	<g>
		<g>
			<polygon class="st1" points="-126,855 -169.3,855.8 -256,855 -169.3,854.3 			"/>
		</g>
	</g>
</g>
<g>
	<g>
		<g>
			<g>
				<path class="st1" d="M67,433.3c-2.2,0-4.4,0-6.7,0c-4.7,0-9.5,0-14.2,0c-4.4,0-8.9,0-13.3,0c-1.8,0-3.6,0-5.3,0
					c-3.8,0.1-7.7,0.2-11.5,0.3c-1.3,0.1-2.7,0.2-4,0.1c-1.8-0.2-3.7-0.5-5.6-0.5c-1,0-2,0.1-3.1,0.1c-3.2,0-6.5,0.1-9.7,0.1
					c-3.6,0-7.2,0.1-10.9,0.1c-3,0-6.1,0.1-9.1,0.1c-1.4,0-2.9,0.1-4.3,0.1c0,0-0.1,0-0.1,0c-2,0.3-3.9,0.1-6,0.2
					c-1.6,0-3.1,0.1-4.7,0.1c-1.5,0-3-0.1-4.5-0.1l-18.3-0.3l-7.9,0.2c-5.6,0.1-11.1,0.1-16.7-0.2c-3-0.1-5.9-0.3-9-0.1
					c-1.7,0.1-3.5,0.3-5.2,0.3l-30-0.2h-20.8h-7.9c-1.2-0.2-3-0.2-4.3-0.2c-3.7-0.3-7.2-0.2-10.9-0.3c-4.3,0-8.6-0.1-12.9-0.1
					c-0.2,0-3.1-0.1-3.1,0l0.3-0.4c0,0,20.9,0.1,21.2,0.1c3.1,0,3.8,0.2,7.4,0.4c5.5,0.3,13.2,0.2,18.7,0.2c0.6,0,1.2,0,1.8,0
					l39.5-0.1c2.9,0,5.7-0.2,8.5-0.2c1.3,0,2.8-0.1,4.1,0.1c1.8,0.2,3.6,0.3,5.5,0.3l23.5-0.1l9.6,0.1c5.4-0.1,10.8,0,16.2-0.1
					l6.2,0.1h5l34-0.5c1.6,0.1,3.2,0.4,4.7,0.5c1.4,0,3-0.1,4.4-0.2c4-0.1,8.1-0.3,12.1-0.5c2.5-0.1,4.8,0.1,7.3,0.1
					c2.5,0.1,4.9,0.1,7.4,0.2c5.9,0.1,11.7,0.2,17.6,0.3C63.7,433.3,65.3,433.3,67,433.3z"/>
			</g>
		</g>
	</g>
</g>
</svg>
