<?xml version="1.0" encoding="utf-8"?>
<!-- Generator: Adobe Illustrator 19.0.1, SVG Export Plug-In . SVG Version: 6.00 Build 0)  -->
<svg version="1.1" id="Layer_1" xmlns="http://www.w3.org/2000/svg" xmlns:xlink="http://www.w3.org/1999/xlink" x="0px" y="0px"
	 viewBox="-223 423.8 200.1 18.2" style="enable-background:new -223 423.8 200.1 18.2;" xml:space="preserve">
<style type="text/css">
	.st0{fill:#FFFFFF;}
</style>
<g id="decoration_4_3_">
	<g>
		<path class="st0" d="M-397.9,860.2l-48.1-0.5l48.1-0.5c0.3,0,0.5,0.2,0.5,0.5C-397.4,860-397.6,860.2-397.9,860.2L-397.9,860.2z"
			/>
	</g>
</g>
<g>
	<g>
		<g>
			<g>
				<path class="st0" d="M-22.9,432.9c-1.7,0-3.4,0-5.1,0c-3.7,0-7.3,0-11,0c-3.4,0-6.8,0-10.3,0c-1.4,0-2.7,0-4.1,0
					c-2.9,0.1-5.9,0.2-8.8,0.3c-1,0.1-2.1,0.2-3.1,0.1c-1.4-0.2-2.8-0.5-4.3-0.5c-0.8,0-1.6,0.1-2.4,0.1c-2.5,0-5,0.1-7.5,0.1
					c-2.8,0-5.6,0.1-8.4,0.1c-2.3,0-4.7,0.1-7,0.1c-1.1,0-2.2,0.1-3.3,0.1c0,0-0.1,0-0.1,0c-1.6,0.3-3,0.1-4.6,0.2
					c-1.2,0-2.4,0.1-3.6,0.1c-1.1,0-2.3-0.1-3.4-0.1l-14.1-0.3l-6.1,0.2c-4.3,0.1-8.6,0.1-12.9-0.2c-2.3-0.1-4.5-0.3-6.9-0.1
					c-1.3,0.1-2.7,0.3-4,0.3l-23.1-0.2h-16h-6.1c-1-0.2-2.3-0.2-3.3-0.2c-2.8-0.3-5.6-0.2-8.4-0.3c-3.3,0-6.6-0.1-9.9-0.1
					c-0.1,0-2.4-0.1-2.4,0l0.2-0.4c0,0,16.1,0.1,16.3,0.1c2.4,0,3,0.2,5.7,0.4c4.3,0.3,10.1,0.2,14.4,0.2c0.5,0,0.9,0,1.4,0
					l30.4-0.1c2.2,0,4.4-0.2,6.6-0.2c1,0,2.2-0.1,3.2,0.1c1.4,0.2,2.8,0.3,4.2,0.3l18.1-0.1l7.4,0.1c4.2-0.1,8.3,0,12.5-0.1l4.8,0.1
					h3.9l26.1-0.5c1.2,0.1,2.4,0.4,3.6,0.5c1.1,0,2.3-0.1,3.4-0.2c3.1-0.1,6.2-0.3,9.3-0.5c1.9-0.1,3.7,0.1,5.6,0.1
					c1.9,0.1,3.8,0.1,5.7,0.2c4.5,0.1,9,0.2,13.5,0.3C-25.5,432.8-24.2,432.9-22.9,432.9z"/>
			</g>
		</g>
	</g>
</g>
</svg>
