<?xml version="1.0" encoding="utf-8"?>
<!-- Generator: Adobe Illustrator 19.0.1, SVG Export Plug-In . SVG Version: 6.00 Build 0)  -->
<svg version="1.1" id="Layer_1" xmlns="http://www.w3.org/2000/svg" xmlns:xlink="http://www.w3.org/1999/xlink" x="0px" y="0px"
	 viewBox="-193 421.7 260 23.3" style="enable-background:new -193 421.7 260 23.3;" xml:space="preserve">
<style type="text/css">
	.st0{fill:#C9992D;}
	.st1{fill:none;stroke:#C9992D;stroke-linecap:round;stroke-miterlimit:10;}
	.st2{fill:#E1E5A3;}
</style>
<g id="decoration_4_1_">
	<g>
		<path class="st0" d="M-323.5,859.3l-62.5-0.5l62.5-0.5c0.3,0,0.5,0.2,0.5,0.5C-323,859-323.2,859.3-323.5,859.3L-323.5,859.3z"/>
	</g>
	<g>
		<path class="st0" d="M-188.5,858.3l62.5,0.5l-62.5,0.5c-0.3,0-0.5-0.2-0.5-0.5C-189,858.5-188.8,858.3-188.5,858.3L-188.5,858.3z"
			/>
	</g>
	<path class="st1" d="M-323.5,858.8"/>
</g>
<g>
	<g>
		<g>
			<g>
				<path class="st2" d="M67,433.3c-2.2,0-4.4,0-6.7,0c-4.7,0-9.5,0-14.2,0c-4.4,0-8.9,0-13.3,0c-1.8,0-3.6-0.1-5.3,0.1
					c-3.8,0.3-7.7,0.5-11.5,1c-1.3,0.2-2.7,0.6-4,0.3c-1.8-0.5-3.7-1.5-5.6-1.4c-1,0.1-2,0.3-3.1,0.3c-3.2-0.1-6.5,0.2-9.7,0.3
					c-3.6,0.1-7.2,0.2-10.9,0.4c-3,0.1-6.1,0.2-9.1,0.4c-1.4,0.1-2.9,0.2-4.3,0.2c0,0-0.1,0-0.1,0c-2,1-3.9,0.4-6,0.5
					c-1.6,0-3.1,0.3-4.7,0.4c-1.5,0.1-3-0.2-4.5-0.4l-18.3-1l-7.9,0.5c-5.6,0.3-11.1,0.2-16.7-0.5c-3-0.4-5.9-1-9-0.4
					c-1.7,0.3-3.5,0.9-5.2,0.9l-30-0.5h-20.8h-7.9c-1.2-0.5-3-0.5-4.3-0.7c-3.7-0.8-7.2-0.7-10.9-0.8c-4.3-0.1-8.6-0.2-12.9-0.3
					c-0.2,0-3.1-0.3-3.1-0.1l0.3-1.3c0,0,20.9,0.3,21.2,0.3c3.1,0,3.8,0.5,7.4,1.1c5.5,0.9,13.2,0.5,18.7,0.5c0.6,0,1.2,0,1.8,0
					l39.5-0.3c2.9,0,5.7-0.7,8.5-0.6c1.3,0,2.8-0.2,4.1,0.3c1.8,0.7,3.6,0.8,5.5,0.9l23.5-0.3l9.6,0.3c5.4-0.2,10.8,0.1,16.2-0.3
					l6.2,0.2h5l34-1.4c1.6,0.3,3.2,1.3,4.7,1.4c1.4,0.1,3-0.3,4.4-0.5c4-0.4,8.1-1,12.1-1.5c2.5-0.3,4.8,0.2,7.3,0.4
					c2.5,0.2,4.9,0.4,7.4,0.5c5.9,0.3,11.7,0.6,17.6,0.9C63.7,433.1,65.3,433.2,67,433.3z"/>
			</g>
		</g>
	</g>
</g>
</svg>
